#!OML:ASF F:\VICON\USERDATA\INSTALL\Justin_Nancy\Justin_Nancy.ASF
:FULLY-SPECIFIED
:DEGREES
335
root 0.205107 17.1497 21.7747 1.09541 1.05801 4.22296
lowerback 6.78592 -1.42594 -5.84473
upperback 1.35889 -2.26262 1.91691
thorax -2.09009 -1.0966 5.4703
lowerneck -17.6295 -2.89212 -9.34161
upperneck 19.0973 -2.61267 5.265
head 9.10644 -1.3345 3.01598
rclavicle -4.77083e-015 -7.15625e-015
rhumerus -35.1877 -17.8562 -76.4935
rradius 25.7812
rwrist 11.3632
rhand -13.4415 11.5058
rfingers 7.12502
rthumb 12.6676 -18.09
lclavicle -4.77083e-015 -7.15625e-015
lhumerus -21.2164 4.00854 84.4007
lradius 32.1362
lwrist -7.73184
lhand -18.1955 23.3432
lfingers 7.12502
lthumb 8.08162 413.169
rfemur -25.9336 1.20537 16.8244
rtibia 17.1205
rfoot -1.26806 -7.59901
rtoes -23.6976
lfemur 9.4843 -5.3422 -28.0527
ltibia 21
lfoot -16.5997 -0.635189
ltoes -8.7434
336
root 0.180055 17.1807 21.9395 1.26156 1.23817 4.00078
lowerback 6.76352 -1.52269 -5.69386
upperback 1.13685 -2.38117 2.00383
thorax -2.29479 -1.14354 5.48949
lowerneck -17.3436 -2.7058 -9.38203
upperneck 19.1618 -2.39336 5.35221
head 9.06017 -1.23008 3.08357
rclavicle -2.70347e-014 -1.19271e-014
rhumerus -35.4783 -18.1084 -76.2161
rradius 25.5904
rwrist 11.7938
rhand -13.2318 11.0135
rfingers 7.12502
rthumb 12.8697 -18.5697
lclavicle -2.70347e-014 -1.19271e-014
lhumerus -21.6125 4.33594 84.4106
lradius 31.9326
lwrist -7.97806
lhand -17.4238 24.2638
lfingers 7.12502
lthumb 8.82641 414.059
rfemur -26.0145 1.62569 17.0162
rtibia 17.8662
rfoot -0.799745 -7.45833
rtoes -20.1099
lfemur 9.74937 -5.79128 -27.8025
ltibia 21.0688
lfoot -15.5297 -1.11006
ltoes -7.35522
337
root 0.161749 17.2028 22.113 1.28374 1.37114 3.91857
lowerback 6.70247 -1.57295 -5.53455
upperback 1.07761 -2.43485 1.98559
thorax -2.3226 -1.169 5.3828
lowerneck -17.3867 -2.73312 -9.35631
upperneck 19.3643 -2.43213 5.32115
head 9.1405 -1.25219 3.0664
rclavicle -5.94366e-014 1.90833e-014
rhumerus -35.7142 -18.4599 -76.0025
rradius 25.4302
rwrist 12.0949
rhand -13.2165 11.2082
rfingers 7.12502
rthumb 12.8845 -18.3741
lclavicle -5.94366e-014 1.90833e-014
lhumerus -21.8094 4.57981 84.4225
lradius 31.5724
lwrist -8.43201
lhand -17.2726 24.499
lfingers 7.12502
lthumb 8.97233 414.288
rfemur -25.8649 1.73982 17.0567
rtibia 18.1795
rfoot -0.225584 -7.11018
rtoes -16.5471
lfemur 10.2194 -6.19163 -27.7721
ltibia 21.3149
lfoot -14.7634 -0.959428
ltoes -9.38753
338
root 0.143085 17.2157 22.2843 1.29689 1.42539 3.8497
lowerback 6.56387 -1.58644 -5.45722
upperback 1.16629 -2.43793 2.01866
thorax -2.15446 -1.17914 5.36557
lowerneck -17.787 -2.83006 -9.3624
upperneck 19.6103 -2.50354 5.20294
head 9.30387 -1.29766 3.0194
rclavicle 1.19271e-014 -1.90833e-014
rhumerus -35.6425 -18.8625 -75.8086
rradius 25.2566
rwrist 12.3176
rhand -13.254 11.4148
rfingers 7.12502
rthumb 12.8483 -18.1698
lclavicle 1.19271e-014 -1.90833e-014
lhumerus -21.7504 4.98376 84.5094
lradius 31.3047
lwrist -8.98417
lhand -16.5264 25.2752
lfingers 7.12502
lthumb 9.6923 415.032
rfemur -25.5466 2.01009 17.0406
rtibia 18.0944
rfoot 0.381277 -6.80974
rtoes -14.5634
lfemur 10.5821 -6.51804 -27.7859
ltibia 21.8724
lfoot -14.4521 -0.28236
ltoes -16.6328
339
root 0.11647 17.243 22.4488 1.28243 1.34878 3.40687
lowerback 6.48567 -1.55314 -5.115
upperback 1.27581 -2.36139 2.15107
thorax -2.01574 -1.15017 5.2985
lowerneck -18.2028 -2.82864 -9.31395
upperneck 19.8964 -2.46651 5.14461
head 9.47539 -1.28246 2.99937
rclavicle 6.16232e-015 -1.59028e-015
rhumerus -35.3605 -19.3037 -75.658
rradius 24.7913
rwrist 12.6621
rhand -13.5339 11.7064
rfingers 7.12502
rthumb 12.5785 -17.895
lclavicle 6.16232e-015 -1.59028e-015
lhumerus -21.8693 5.40746 84.5668
lradius 31.1467
lwrist -9.13146
lhand -17.7695 23.1592
lfingers 7.12502
lthumb 8.49278 412.968
rfemur -25.0861 2.7678 17.3843
rtibia 17.7913
rfoot 0.891664 -6.66827
rtoes -11.7541
lfemur 10.5778 -6.72434 -27.3314
ltibia 22.8455
lfoot -14.0188 -0.0105617
ltoes -21.9224
340
root 0.0926995 17.2694 22.6157 1.22898 1.20572 2.79004
lowerback 6.36099 -1.53952 -4.60941
upperback 1.37185 -2.29836 2.35345
thorax -1.86676 -1.12802 5.21145
lowerneck -18.1831 -2.70748 -9.2702
upperneck 19.8602 -2.30503 5.11667
head 9.4449 -1.2068 3.00379
rclavicle -1.25234e-014 9.54166e-015
rhumerus -35.1072 -19.3519 -75.6132
rradius 24.5075
rwrist 12.7756
rhand -13.7172 11.5861
rfingers 7.12502
rthumb 12.4018 -18.026
lclavicle -1.25234e-014 9.54166e-015
lhumerus -22.0824 5.77343 84.6535
lradius 30.6758
lwrist -9.04597
lhand -20.3831 19.7131
lfingers 7.12502
lthumb 5.96998 409.609
rfemur -24.5553 3.31356 18.062
rtibia 17.6187
rfoot 1.52648 -6.20183
rtoes -8.95103
lfemur 10.2934 -6.992 -26.709
ltibia 24.0877
lfoot -12.8712 -0.27087
ltoes -22.2138
341
root 0.0768847 17.2931 22.7874 1.38366 1.04784 2.266
lowerback 6.13335 -1.51863 -4.06479
upperback 1.29991 -2.22472 2.471
thorax -1.8401 -1.09264 5.01281
lowerneck -17.771 -2.77236 -9.22706
upperneck 19.5145 -2.43966 5.11233
head 9.25932 -1.26642 2.97239
rclavicle 2.3059e-014 -6.36111e-015
rhumerus -35.2569 -19.3869 -75.5453
rradius 24.5256
rwrist 12.8267
rhand -13.6539 11.3926
rfingers 7.12502
rthumb 12.4628 -18.2158
lclavicle 2.3059e-014 -6.36111e-015
lhumerus -22.4201 6.20714 84.629
lradius 30.4438
lwrist -9.26199
lhand -18.3401 22.3697
lfingers 7.12502
lthumb 7.94209 412.2
rfemur -24.2897 3.15579 18.8521
rtibia 17.7991
rfoot 2.22472 -5.4152
rtoes -6.79384
lfemur 9.71185 -7.17642 -26.1517
ltibia 25.4303
lfoot -11.3903 -0.769457
ltoes -21.0365
